<svg xmlns:xlink="http://www.w3.org/1999/xlink" xmlns="http://www.w3.org/2000/svg" viewBox="0 0 462.8 103.1" width="462.8"  height="103.1" ><defs><style>.cls-1{fill:#fff;fill-rule:evenodd;}</style></defs><title>logow</title><g id="Layer_2" data-name="Layer 2"><g id="katman_1" data-name="katman 1"><path class="cls-1" d="M53.9,38.7,44.5,58.4a96.83,96.83,0,0,1,22.3,7.2L53.9,38.7ZM288.5,19.1c-18.4,0-33.3,14.5-33.3,32.4s15,32.3,33.3,32.3,33.4-14.5,33.4-32.3-15-32.4-33.4-32.4ZM126.2,5.1a15.2,15.2,0,0,1,13.7,8.6l26,54.8,25.8-54.8A15.12,15.12,0,0,1,205.4,5h13l-47.3,97.9H160.7L113.4,5.1ZM288.5,0c15,0,28.2,5.1,38.2,14.7a50.25,50.25,0,0,1,15.9,36.7,49.21,49.21,0,0,1-16,36.5,54.7,54.7,0,0,1-38.1,15,54.16,54.16,0,0,1-38.2-15.1,50.51,50.51,0,0,1,0-73.2C260.4,5.1,273.6,0,288.5,0ZM390.1,5.1,442.7,67l-.1-51.6A10.42,10.42,0,0,1,453.2,5.1h9.6V103h-4.3c-12.3,0-20.8-10.9-20.8-10.9l-43.1-51,.1,51.5a10.42,10.42,0,0,1-10.6,10.3h-9.6V5.1ZM59.2,5.1,107.9,103H85.1C70.6,83.7,54.5,77.1,36.4,74.9L26.2,94.5c-3.5,5.7-8.5,8.6-14.4,8.6H0L48.6,5.2H59.2Z"/></g></g></svg>